<mxfile host="app.diagrams.net" agent="Mozilla/5.0 (X11; Linux x86_64; rv:129.0) Gecko/20100101 Firefox/129.0" version="24.7.7">
  <diagram name="Page-1" id="g9cyGupYJwyIfFuHXiOP">
    <mxGraphModel dx="819" dy="428" grid="1" gridSize="10" guides="1" tooltips="1" connect="1" arrows="1" fold="1" page="1" pageScale="1" pageWidth="850" pageHeight="1100" math="0" shadow="0">
      <root>
        <mxCell id="0" />
        <mxCell id="1" parent="0" />
        <mxCell id="pznIZhCj3GZSAqn9UuwN-16" style="edgeStyle=orthogonalEdgeStyle;rounded=0;orthogonalLoop=1;jettySize=auto;html=1;" edge="1" parent="1" source="pznIZhCj3GZSAqn9UuwN-4">
          <mxGeometry relative="1" as="geometry">
            <mxPoint x="580" y="435.02857142857135" as="targetPoint" />
            <Array as="points">
              <mxPoint x="180" y="490" />
              <mxPoint x="180" y="630" />
              <mxPoint x="680" y="630" />
              <mxPoint x="680" y="435" />
            </Array>
          </mxGeometry>
        </mxCell>
        <mxCell id="pznIZhCj3GZSAqn9UuwN-39" style="edgeStyle=orthogonalEdgeStyle;rounded=0;orthogonalLoop=1;jettySize=auto;html=1;entryX=0;entryY=0.5;entryDx=0;entryDy=0;" edge="1" parent="1" source="pznIZhCj3GZSAqn9UuwN-19" target="pznIZhCj3GZSAqn9UuwN-25">
          <mxGeometry relative="1" as="geometry" />
        </mxCell>
        <mxCell id="pznIZhCj3GZSAqn9UuwN-40" style="edgeStyle=orthogonalEdgeStyle;rounded=0;orthogonalLoop=1;jettySize=auto;html=1;entryX=0;entryY=0.5;entryDx=0;entryDy=0;" edge="1" parent="1" source="pznIZhCj3GZSAqn9UuwN-19" target="pznIZhCj3GZSAqn9UuwN-23">
          <mxGeometry relative="1" as="geometry" />
        </mxCell>
        <mxCell id="pznIZhCj3GZSAqn9UuwN-19" value="constant parameters" style="rounded=1;whiteSpace=wrap;html=1;" vertex="1" parent="1">
          <mxGeometry x="100" y="160" width="120" height="60" as="geometry" />
        </mxCell>
        <mxCell id="pznIZhCj3GZSAqn9UuwN-27" style="edgeStyle=orthogonalEdgeStyle;rounded=0;orthogonalLoop=1;jettySize=auto;html=1;" edge="1" parent="1" source="pznIZhCj3GZSAqn9UuwN-20" target="pznIZhCj3GZSAqn9UuwN-23">
          <mxGeometry relative="1" as="geometry" />
        </mxCell>
        <mxCell id="pznIZhCj3GZSAqn9UuwN-20" value="&lt;div&gt;creating variables&lt;/div&gt;&lt;div&gt;T and w_i&lt;br&gt;&lt;/div&gt;" style="rounded=1;whiteSpace=wrap;html=1;" vertex="1" parent="1">
          <mxGeometry x="330" y="40" width="120" height="60" as="geometry" />
        </mxCell>
        <mxCell id="pznIZhCj3GZSAqn9UuwN-21" value="creating ode for T and w_i" style="rounded=1;whiteSpace=wrap;html=1;" vertex="1" parent="1">
          <mxGeometry x="530" y="230" width="120" height="60" as="geometry" />
        </mxCell>
        <mxCell id="pznIZhCj3GZSAqn9UuwN-22" value="creating algebraic equations for D_i^eff and p" style="rounded=1;whiteSpace=wrap;html=1;" vertex="1" parent="1">
          <mxGeometry x="530" y="160" width="120" height="60" as="geometry" />
        </mxCell>
        <mxCell id="pznIZhCj3GZSAqn9UuwN-29" style="edgeStyle=orthogonalEdgeStyle;rounded=0;orthogonalLoop=1;jettySize=auto;html=1;" edge="1" parent="1" source="pznIZhCj3GZSAqn9UuwN-23" target="pznIZhCj3GZSAqn9UuwN-25">
          <mxGeometry relative="1" as="geometry" />
        </mxCell>
        <mxCell id="pznIZhCj3GZSAqn9UuwN-23" value="creating algebraic equations for feed and surface T and w_i" style="rounded=1;whiteSpace=wrap;html=1;" vertex="1" parent="1">
          <mxGeometry x="330" y="130" width="120" height="60" as="geometry" />
        </mxCell>
        <mxCell id="pznIZhCj3GZSAqn9UuwN-44" style="edgeStyle=orthogonalEdgeStyle;rounded=0;orthogonalLoop=1;jettySize=auto;html=1;entryX=0.5;entryY=0;entryDx=0;entryDy=0;" edge="1" parent="1" source="pznIZhCj3GZSAqn9UuwN-24" target="pznIZhCj3GZSAqn9UuwN-43">
          <mxGeometry relative="1" as="geometry" />
        </mxCell>
        <mxCell id="pznIZhCj3GZSAqn9UuwN-24" value="integrate using casadi and idas integrator" style="rounded=1;whiteSpace=wrap;html=1;" vertex="1" parent="1">
          <mxGeometry x="330" y="280" width="120" height="60" as="geometry" />
        </mxCell>
        <mxCell id="pznIZhCj3GZSAqn9UuwN-32" style="edgeStyle=orthogonalEdgeStyle;rounded=0;orthogonalLoop=1;jettySize=auto;html=1;entryX=0;entryY=0.5;entryDx=0;entryDy=0;" edge="1" parent="1" source="pznIZhCj3GZSAqn9UuwN-25" target="pznIZhCj3GZSAqn9UuwN-22">
          <mxGeometry relative="1" as="geometry" />
        </mxCell>
        <mxCell id="pznIZhCj3GZSAqn9UuwN-33" style="edgeStyle=orthogonalEdgeStyle;rounded=0;orthogonalLoop=1;jettySize=auto;html=1;entryX=0;entryY=0.5;entryDx=0;entryDy=0;" edge="1" parent="1" source="pznIZhCj3GZSAqn9UuwN-25" target="pznIZhCj3GZSAqn9UuwN-21">
          <mxGeometry relative="1" as="geometry" />
        </mxCell>
        <mxCell id="pznIZhCj3GZSAqn9UuwN-42" style="edgeStyle=orthogonalEdgeStyle;rounded=0;orthogonalLoop=1;jettySize=auto;html=1;entryX=0.5;entryY=0;entryDx=0;entryDy=0;" edge="1" parent="1" source="pznIZhCj3GZSAqn9UuwN-25" target="pznIZhCj3GZSAqn9UuwN-24">
          <mxGeometry relative="1" as="geometry" />
        </mxCell>
        <mxCell id="pznIZhCj3GZSAqn9UuwN-25" value="&lt;div&gt;for each radius&lt;/div&gt;" style="rounded=0;whiteSpace=wrap;html=1;" vertex="1" parent="1">
          <mxGeometry x="330" y="210" width="120" height="30" as="geometry" />
        </mxCell>
        <mxCell id="pznIZhCj3GZSAqn9UuwN-43" value="results" style="ellipse;whiteSpace=wrap;html=1;" vertex="1" parent="1">
          <mxGeometry x="330" y="370" width="120" height="30" as="geometry" />
        </mxCell>
        <mxCell id="pznIZhCj3GZSAqn9UuwN-47" style="edgeStyle=orthogonalEdgeStyle;rounded=0;orthogonalLoop=1;jettySize=auto;html=1;entryX=0;entryY=0.5;entryDx=0;entryDy=0;" edge="1" parent="1" source="pznIZhCj3GZSAqn9UuwN-46" target="pznIZhCj3GZSAqn9UuwN-24">
          <mxGeometry relative="1" as="geometry" />
        </mxCell>
        <mxCell id="pznIZhCj3GZSAqn9UuwN-46" value="start values" style="rounded=1;whiteSpace=wrap;html=1;" vertex="1" parent="1">
          <mxGeometry x="100" y="280" width="120" height="60" as="geometry" />
        </mxCell>
      </root>
    </mxGraphModel>
  </diagram>
</mxfile>
